<svg width="112" height="36" viewBox="0 0 112 36" fill="none" xmlns="http://www.w3.org/2000/svg">
<mask id="mask0_234_1637" style="mask-type:luminance" maskUnits="userSpaceOnUse" x="8" y="19" width="15" height="15">
<path d="M8.96094 19.2539H22.9983V33.2912H8.96094V19.2539Z" fill="white"/>
</mask>
<g mask="url(#mask0_234_1637)">
<mask id="mask1_234_1637" style="mask-type:luminance" maskUnits="userSpaceOnUse" x="4" y="14" width="24" height="24">
<path d="M27.6557 29.6372L19.356 37.9369L4.25 22.8309L12.5497 14.5312L27.6557 29.6372Z" fill="white"/>
</mask>
<g mask="url(#mask1_234_1637)">
<mask id="mask2_234_1637" style="mask-type:luminance" maskUnits="userSpaceOnUse" x="4" y="14" width="24" height="24">
<path d="M19.3978 37.892L27.6986 29.5923L12.5926 14.4863L4.29297 22.786L19.3978 37.892Z" fill="white"/>
</mask>
<g mask="url(#mask2_234_1637)">
<path d="M19.4474 22.7137C15.6686 18.9348 9.15858 19.3175 9.15858 19.3175C9.15858 19.3175 8.69541 25.9068 12.4742 29.6857C16.2531 33.4657 22.8424 33.0025 22.8424 33.0025C22.8424 33.0025 23.2262 26.4925 19.4474 22.7137Z" fill="#27BB9C"/>
</g>
</g>
</g>
<mask id="mask3_234_1637" style="mask-type:luminance" maskUnits="userSpaceOnUse" x="23" y="4" width="13" height="30">
<path d="M23.7344 4.06055H35.4722V33.1374H23.7344V4.06055Z" fill="white"/>
</mask>
<g mask="url(#mask3_234_1637)">
<path d="M23.7344 33.1637V15.6905C23.7344 9.2517 28.954 4.0332 35.3917 4.0332V21.5064C35.3917 27.9452 30.1732 33.1637 23.7344 33.1637Z" fill="#27BB9C"/>
</g>
<mask id="mask4_234_1637" style="mask-type:luminance" maskUnits="userSpaceOnUse" x="8" y="5" width="15" height="14">
<path d="M8.89453 5.05078H22.443V18.5993H8.89453V5.05078Z" fill="white"/>
</mask>
<g mask="url(#mask4_234_1637)">
<mask id="mask5_234_1637" style="mask-type:luminance" maskUnits="userSpaceOnUse" x="8" y="5" width="15" height="14">
<path d="M15.6682 5.05078C11.9279 5.05078 8.89453 8.08295 8.89453 11.8244C8.89453 15.5659 11.9279 18.5993 15.6682 18.5993C19.4097 18.5993 22.443 15.5659 22.443 11.8244C22.443 8.08295 19.4097 5.05078 15.6682 5.05078Z" fill="white"/>
</mask>
<g mask="url(#mask5_234_1637)">
<path d="M8.89453 5.05078H22.443V18.5993H8.89453V5.05078Z" fill="#025080"/>
</g>
</g>
<path d="M42.8989 17.2323C42.1989 17.2323 41.6249 17.1203 41.1769 16.8963C40.7289 16.6723 40.3952 16.3759 40.1782 16.0049C39.9601 15.6316 39.8516 15.2209 39.8516 14.7729C39.8516 14.0204 40.1456 13.4091 40.7336 12.9389C41.3239 12.4699 42.2094 12.2343 43.3889 12.2343H45.4562V12.0383C45.4562 11.4818 45.2976 11.0723 44.9802 10.8109C44.6629 10.5473 44.2686 10.4143 43.7996 10.4143C43.3726 10.4143 43.0016 10.5158 42.6842 10.7176C42.3669 10.9206 42.1709 11.2193 42.0962 11.6136H40.0476C40.1001 11.0233 40.2996 10.5099 40.6449 10.0736C40.9902 9.63494 41.4347 9.29894 41.9796 9.0656C42.5267 8.82994 43.1392 8.71094 43.8182 8.71094C44.9756 8.71094 45.8867 9.00027 46.5529 9.57894C47.2179 10.1576 47.5516 10.9778 47.5516 12.0383V17.0363H45.7642L45.5682 15.7249C45.3279 16.1636 44.9919 16.5253 44.5602 16.8076C44.1309 17.0899 43.5767 17.2323 42.8989 17.2323ZM43.3749 15.5943C43.9746 15.5943 44.4412 15.3983 44.7749 15.0063C45.1074 14.6119 45.3174 14.1243 45.4049 13.5456H43.6176C43.0599 13.5456 42.6621 13.6471 42.4229 13.8489C42.1826 14.0519 42.0636 14.3004 42.0636 14.5956C42.0636 14.9129 42.1826 15.1591 42.4229 15.3329C42.6621 15.5079 42.9794 15.5943 43.3749 15.5943Z" fill="#27BB9C"/>
<path d="M51.9498 14.6096C51.5543 14.6096 51.1868 14.5664 50.8485 14.4789L50.2465 15.0856C50.4297 15.1859 50.6805 15.2676 50.9978 15.3329C51.3152 15.3983 51.8285 15.4636 52.5378 15.5289C53.6205 15.6293 54.4068 15.8859 54.8992 16.2989C55.3903 16.7131 55.6365 17.2859 55.6365 18.0209C55.6365 18.4993 55.5035 18.9554 55.2398 19.3883C54.9785 19.8199 54.5737 20.1699 54.0265 20.4383C53.4817 20.7054 52.7828 20.8396 51.9312 20.8396C50.7738 20.8396 49.8382 20.6226 49.1265 20.1909C48.4172 19.7581 48.0625 19.1106 48.0625 18.2496C48.0625 17.5181 48.4183 16.8846 49.1312 16.3456C48.9095 16.2499 48.7205 16.1473 48.5618 16.0376C48.4055 15.9291 48.2678 15.8136 48.1465 15.6923V15.3143L49.5745 13.8069C48.9398 13.2504 48.6225 12.5353 48.6225 11.6603C48.6225 11.1131 48.7555 10.6149 49.0238 10.1669C49.291 9.71894 49.6702 9.36427 50.1625 9.10294C50.6537 8.8416 51.2498 8.71094 51.9498 8.71094C52.4072 8.71094 52.833 8.77627 53.2285 8.90694H56.3085V10.1856L54.9132 10.2836C55.1337 10.7013 55.2445 11.1598 55.2445 11.6603C55.2445 12.2086 55.1115 12.7056 54.8478 13.1536C54.5865 13.6016 54.2062 13.9563 53.7092 14.2176C53.2145 14.4789 52.6277 14.6096 51.9498 14.6096ZM51.9498 13.0043C52.3757 13.0043 52.7268 12.8911 53.0045 12.6636C53.2845 12.4338 53.4245 12.1059 53.4245 11.6789C53.4245 11.2531 53.2845 10.9253 53.0045 10.6943C52.7268 10.4644 52.3757 10.3489 51.9498 10.3489C51.5018 10.3489 51.1402 10.4644 50.8672 10.6943C50.593 10.9253 50.4565 11.2531 50.4565 11.6789C50.4565 12.1059 50.593 12.4338 50.8672 12.6636C51.1402 12.8911 51.5018 13.0043 51.9498 13.0043ZM49.9805 18.0349C49.9805 18.4386 50.1683 18.7419 50.5452 18.9449C50.9243 19.1468 51.3863 19.2483 51.9312 19.2483C52.4562 19.2483 52.8832 19.1409 53.2098 18.9263C53.5388 18.7139 53.7045 18.4281 53.7045 18.0676C53.7045 17.7713 53.5972 17.5263 53.3825 17.3303C53.1702 17.1343 52.7478 17.0153 52.1132 16.9709C51.6652 16.9371 51.2498 16.8869 50.8672 16.8216C50.5498 16.9989 50.3223 17.1903 50.1858 17.3956C50.0482 17.6033 49.9805 17.8168 49.9805 18.0349Z" fill="#27BB9C"/>
<path d="M56.7812 17.0363V8.90694H58.6526L58.8486 10.4329C59.1438 9.90794 59.5451 9.4891 60.0526 9.1776C60.5589 8.86727 61.1563 8.71094 61.8446 8.71094V10.9229H61.2566C60.7993 10.9229 60.3898 10.9953 60.0293 11.1376C59.6676 11.2776 59.3864 11.5238 59.1846 11.8749C58.9816 12.2238 58.8813 12.7091 58.8813 13.3309V17.0363H56.7812Z" fill="#27BB9C"/>
<path d="M66.1236 17.2323C65.3361 17.2323 64.6279 17.0514 64.0003 16.6909C63.3714 16.3304 62.8733 15.8311 62.5069 15.1929C62.1429 14.5524 61.9609 13.8116 61.9609 12.9716C61.9609 12.1316 62.1453 11.3931 62.5163 10.7549C62.8896 10.1144 63.3901 9.61394 64.0189 9.25227C64.6466 8.89177 65.3548 8.71094 66.1423 8.71094C66.9169 8.71094 67.6181 8.89177 68.2469 9.25227C68.8746 9.61394 69.3716 10.1144 69.7356 10.7549C70.1019 11.3931 70.2863 12.1316 70.2863 12.9716C70.2863 13.8116 70.1019 14.5524 69.7356 15.1929C69.3716 15.8311 68.8723 16.3304 68.2376 16.6909C67.6029 17.0514 66.8983 17.2323 66.1236 17.2323ZM66.1236 15.4123C66.6708 15.4123 67.1468 15.2093 67.5516 14.8009C67.9553 14.3903 68.1583 13.7813 68.1583 12.9716C68.1583 12.1631 67.9553 11.5553 67.5516 11.1469C67.1468 10.7363 66.6766 10.5309 66.1423 10.5309C65.5846 10.5309 65.1063 10.7363 64.7049 11.1469C64.3059 11.5553 64.1076 12.1631 64.1076 12.9716C64.1076 13.7813 64.3059 14.3903 64.7049 14.8009C65.1063 15.2093 65.5788 15.4123 66.1236 15.4123Z" fill="#27BB9C"/>
<path d="M71.4825 17.0364V10.6617H70.3672V8.90704H71.4825V7.95504C71.4825 6.97271 71.731 6.27387 72.2292 5.85971C72.7262 5.44321 73.4017 5.23438 74.2545 5.23438H75.1552V7.02171H74.5812C74.2195 7.02171 73.9629 7.09404 73.8112 7.23637C73.6584 7.37637 73.5825 7.61671 73.5825 7.95504V8.90704H75.3325V10.6617H73.5825V17.0364H71.4825Z" fill="#27BB9C"/>
<path d="M79.8424 17.2323C79.0549 17.2323 78.3467 17.0514 77.719 16.6909C77.0902 16.3304 76.592 15.8311 76.2257 15.1929C75.8617 14.5524 75.6797 13.8116 75.6797 12.9716C75.6797 12.1316 75.864 11.3931 76.235 10.7549C76.6084 10.1144 77.1089 9.61394 77.7377 9.25227C78.3654 8.89177 79.0735 8.71094 79.861 8.71094C80.6357 8.71094 81.3369 8.89177 81.9657 9.25227C82.5934 9.61394 83.0904 10.1144 83.4544 10.7549C83.8207 11.3931 84.005 12.1316 84.005 12.9716C84.005 13.8116 83.8207 14.5524 83.4544 15.1929C83.0904 15.8311 82.591 16.3304 81.9564 16.6909C81.3217 17.0514 80.617 17.2323 79.8424 17.2323ZM79.8424 15.4123C80.3895 15.4123 80.8655 15.2093 81.2704 14.8009C81.674 14.3903 81.877 13.7813 81.877 12.9716C81.877 12.1631 81.674 11.5553 81.2704 11.1469C80.8655 10.7363 80.3954 10.5309 79.861 10.5309C79.3034 10.5309 78.825 10.7363 78.4237 11.1469C78.0247 11.5553 77.8264 12.1631 77.8264 12.9716C77.8264 13.7813 78.0247 14.3903 78.4237 14.8009C78.825 15.2093 79.2975 15.4123 79.8424 15.4123Z" fill="#27BB9C"/>
<path d="M88.7252 17.2323C87.9377 17.2323 87.2295 17.0514 86.6018 16.6909C85.973 16.3304 85.4748 15.8311 85.1085 15.1929C84.7445 14.5524 84.5625 13.8116 84.5625 12.9716C84.5625 12.1316 84.7468 11.3931 85.1178 10.7549C85.4912 10.1144 85.9917 9.61394 86.6205 9.25227C87.2482 8.89177 87.9563 8.71094 88.7438 8.71094C89.5185 8.71094 90.2197 8.89177 90.8485 9.25227C91.4762 9.61394 91.9732 10.1144 92.3372 10.7549C92.7035 11.3931 92.8878 12.1316 92.8878 12.9716C92.8878 13.8116 92.7035 14.5524 92.3372 15.1929C91.9732 15.8311 91.4738 16.3304 90.8392 16.6909C90.2045 17.0514 89.4998 17.2323 88.7252 17.2323ZM88.7252 15.4123C89.2723 15.4123 89.7483 15.2093 90.1532 14.8009C90.5568 14.3903 90.7598 13.7813 90.7598 12.9716C90.7598 12.1631 90.5568 11.5553 90.1532 11.1469C89.7483 10.7363 89.2782 10.5309 88.7438 10.5309C88.1862 10.5309 87.7078 10.7363 87.3065 11.1469C86.9075 11.5553 86.7092 12.1631 86.7092 12.9716C86.7092 13.7813 86.9075 14.3903 87.3065 14.8009C87.7078 15.2093 88.1803 15.4123 88.7252 15.4123Z" fill="#27BB9C"/>
<path d="M97.4446 17.2324C96.6793 17.2324 95.9956 17.0469 95.396 16.677C94.7951 16.3037 94.3191 15.795 93.968 15.151C93.6191 14.507 93.4453 13.7767 93.4453 12.9577C93.4453 12.1364 93.6191 11.4072 93.968 10.769C94.3191 10.1285 94.7951 9.62571 95.396 9.26171C95.9956 8.89538 96.6793 8.71104 97.4446 8.71104C98.0571 8.71104 98.5926 8.82654 99.05 9.05637C99.5096 9.28387 99.8818 9.60588 100.165 10.0224V5.23438H102.265V17.0364H100.394L100.165 15.8744C99.904 16.236 99.5563 16.5534 99.1246 16.8264C98.6918 17.097 98.1318 17.2324 97.4446 17.2324ZM97.888 15.3984C98.5658 15.3984 99.12 15.172 99.5493 14.717C99.981 14.2632 100.198 13.681 100.198 12.9717C100.198 12.2624 99.981 11.6814 99.5493 11.2264C99.12 10.7725 98.5658 10.545 97.888 10.545C97.2218 10.545 96.67 10.769 96.2313 11.217C95.795 11.665 95.578 12.246 95.578 12.9577C95.578 13.667 95.795 14.2527 96.2313 14.7124C96.67 15.1697 97.2218 15.3984 97.888 15.3984Z" fill="#27BB9C"/>
<path d="M68.6273 29.8438C67.7745 29.8438 67.092 29.6373 66.5786 29.2232C66.0653 28.8067 65.8086 28.0682 65.8086 27.0065V23.4692H64.418V21.7145H65.8086L66.056 19.5352H67.9086V21.7145H70.1066V23.4692H67.9086V27.0252C67.9086 27.4172 67.9926 27.6878 68.1606 27.8372C68.331 27.9842 68.6238 28.0565 69.038 28.0565H70.0553V29.8438H68.6273Z" fill="#025080"/>
<path d="M70.8555 29.8449V21.7155H72.7268L72.9228 23.2415C73.218 22.7165 73.6193 22.2977 74.1268 21.9862C74.6331 21.6759 75.2305 21.5195 75.9188 21.5195V23.7315H75.3308C74.8735 23.7315 74.464 23.8039 74.1035 23.9462C73.7418 24.0862 73.4606 24.3324 73.2588 24.6835C73.0558 25.0324 72.9555 25.5177 72.9555 26.1395V29.8449H70.8555Z" fill="#025080"/>
<path d="M79.102 30.0409C78.402 30.0409 77.828 29.9289 77.38 29.7049C76.932 29.4809 76.5984 29.1845 76.3814 28.8135C76.1632 28.4402 76.0547 28.0295 76.0547 27.5815C76.0547 26.829 76.3487 26.2177 76.9367 25.7475C77.527 25.2785 78.4125 25.0429 79.592 25.0429H81.6594V24.8469C81.6594 24.2904 81.5007 23.8809 81.1834 23.6195C80.866 23.3559 80.4717 23.2229 80.0027 23.2229C79.5757 23.2229 79.2047 23.3244 78.8874 23.5262C78.57 23.7292 78.374 24.0279 78.2994 24.4222H76.2507C76.3032 23.8319 76.5027 23.3185 76.848 22.8822C77.1934 22.4435 77.6379 22.1075 78.1827 21.8742C78.7299 21.6385 79.3424 21.5195 80.0214 21.5195C81.1787 21.5195 82.0899 21.8089 82.756 22.3875C83.421 22.9662 83.7547 23.7864 83.7547 24.8469V29.8449H81.9674L81.7714 28.5335C81.531 28.9722 81.195 29.3339 80.7634 29.6162C80.334 29.8985 79.7799 30.0409 79.102 30.0409ZM79.578 28.4029C80.1777 28.4029 80.6444 28.2069 80.978 27.8149C81.3105 27.4205 81.5205 26.9329 81.608 26.3542H79.8207C79.263 26.3542 78.8652 26.4557 78.626 26.6575C78.3857 26.8605 78.2667 27.109 78.2667 27.4042C78.2667 27.7215 78.3857 27.9677 78.626 28.1415C78.8652 28.3165 79.1825 28.4029 79.578 28.4029Z" fill="#025080"/>
<path d="M88.4446 30.039C87.6793 30.039 86.9956 29.8535 86.396 29.4837C85.7951 29.1103 85.3191 28.6017 84.968 27.9577C84.6191 27.3137 84.4453 26.5833 84.4453 25.7643C84.4453 24.943 84.6191 24.2138 84.968 23.5757C85.3191 22.9352 85.7951 22.4323 86.396 22.0683C86.9956 21.702 87.6793 21.5177 88.4446 21.5177C89.0571 21.5177 89.5926 21.6332 90.05 21.863C90.5096 22.0905 90.8818 22.4125 91.1653 22.829V18.041H93.2653V29.843H91.394L91.1653 28.681C90.904 29.0427 90.5563 29.36 90.1246 29.633C89.6918 29.9037 89.1318 30.039 88.4446 30.039ZM88.888 28.205C89.5658 28.205 90.12 27.9787 90.5493 27.5237C90.981 27.0698 91.198 26.4877 91.198 25.7783C91.198 25.069 90.981 24.488 90.5493 24.033C90.12 23.5792 89.5658 23.3517 88.888 23.3517C88.2218 23.3517 87.67 23.5757 87.2313 24.0237C86.795 24.4717 86.578 25.0527 86.578 25.7643C86.578 26.4737 86.795 27.0593 87.2313 27.519C87.67 27.9763 88.2218 28.205 88.888 28.205Z" fill="#025080"/>
<path d="M98.296 30.0409C97.4747 30.0409 96.7467 29.8659 96.112 29.5182C95.4797 29.167 94.9839 28.6759 94.6234 28.0435C94.2617 27.4089 94.082 26.6762 94.082 25.8455C94.082 25.0055 94.2594 24.2577 94.614 23.6009C94.9687 22.9452 95.4599 22.4342 96.0887 22.0702C96.7164 21.7039 97.4572 21.5195 98.31 21.5195C99.1092 21.5195 99.8139 21.6957 100.424 22.0469C101.037 22.3957 101.514 22.8729 101.857 23.4795C102.202 24.0862 102.375 24.7605 102.375 25.5002C102.375 25.6215 102.371 25.7475 102.365 25.8782C102.362 26.0089 102.354 26.1465 102.342 26.2889H96.1634C96.2065 26.9235 96.427 27.4217 96.826 27.7822C97.2274 28.1404 97.7104 28.3189 98.2774 28.3189C98.7032 28.3189 99.0614 28.2244 99.3507 28.0342C99.64 27.8417 99.8559 27.5932 99.9994 27.2875H102.127C101.975 27.8009 101.721 28.2699 101.367 28.6922C101.012 29.1122 100.575 29.4424 100.055 29.6815C99.535 29.9207 98.9494 30.0409 98.296 30.0409ZM98.31 23.2229C97.7967 23.2229 97.3417 23.3675 96.9474 23.6569C96.5554 23.9462 96.3045 24.3872 96.196 24.9775H100.247C100.212 24.4432 100.015 24.0162 99.654 23.6989C99.2924 23.3815 98.8444 23.2229 98.31 23.2229Z" fill="#025080"/>
</svg>
